<svg xmlns="http://www.w3.org/2000/svg" width="32" height="32" viewBox="0 0 32 32"><g transform="translate(419 -1347.362)"><path style="isolation:auto;mix-blend-mode:normal" fill="#00e4ff" d="m -396.90381,1357.8622 7.4038,0 0,15 -19.99999,0 0,-15 3.46875,0" color="#000" overflow="visible"/><path style="isolation:auto;mix-blend-mode:normal" fill="none" d="m -396.90381,1357.8622 7.4038,0 0,15 -23.99999,0 0,-15 7.46875,0" color="#000" overflow="visible"/><path style="isolation:auto;mix-blend-mode:normal" fill="none" stroke="#000" stroke-linecap="square" stroke-linejoin="round" stroke-miterlimit="0" d="m -387.5,1372.8622 c 0,1.108 -0.99904,2 -2.24001,2 l -23.51998,0 c -1.24097,0 -2.24001,-0.892 -2.24001,-2 z" color="#000" overflow="visible"/><path style="isolation:auto;mix-blend-mode:normal" fill="#fff" d="m -413.5,1357.8622 0,15 1.5,0 0,-15 -1.5,0 z" color="#000" overflow="visible"/><path style="isolation:auto;mix-blend-mode:normal" fill="#00a5ff" d="m -389.5,1372.8622 0,-15 -20,0 0,2 17,0 c 0.554,0 1,0.446 1,1 l 0,12 z" color="#000" overflow="visible"/><path style="isolation:auto;mix-blend-mode:normal" fill="#fff" d="m -410,1372.8622 20.5,0 0,-2 -20.5,0 z" color="#000" overflow="visible"/><path style="isolation:auto;mix-blend-mode:normal" fill="none" stroke="#000" stroke-linecap="round" stroke-linejoin="round" stroke-miterlimit="0" d="m -389.50006,1366.3622 0,-1 m 0,-2 0,-1.75 0,-3.75 -7.46875,0 -9.12744,0 m 16.59619,15 0,-3.75 0,-0.75" color="#000" overflow="visible"/><path style="isolation:auto;mix-blend-mode:normal" fill="#f4606e" d="m -387.5,1372.8622 c 0,1.108 -0.99904,2 -2.24001,2 l -23.51998,0 c -1.24097,0 -2.24001,-0.892 -2.24001,-2 z" color="#000" overflow="visible"/><path style="isolation:auto;mix-blend-mode:normal" fill="#fff" d="m -415.5,1372.8622 c 0,1.108 0.99926,2 2.24023,2 l 1.5,0 c -1.24097,0 -2.24023,-0.892 -2.24023,-2 l -1.5,0 z" color="#000" overflow="visible"/><path style="isolation:auto;mix-blend-mode:normal" fill="#f89963" d="m -387.5,1372.8622 c 0,1.108 -0.99926,2 -2.24023,2 l -1.5,0 c 1.24097,0 2.24023,-0.892 2.24023,-2 l 1.5,0 z" color="#000" overflow="visible"/><path style="isolation:auto;mix-blend-mode:normal" fill="none" stroke="#000" stroke-linecap="square" stroke-linejoin="round" stroke-miterlimit="0" d="m -387.5,1372.8622 c 0,1.108 -0.99904,2 -2.24001,2 l -23.51998,0 c -1.24097,0 -2.24001,-0.892 -2.24001,-2 z" color="#000" overflow="visible"/><path fill="#f8e71b" fill-rule="evenodd" d="m -411.5,1361.3622 0,4 3,3 3,-4 0,-3"/><path fill="#fff" fill-rule="evenodd" d="m -411.5,341 0,4 3,3 0.64258,-0.85742 c 0,0 -2.14258,-2.14258 -2.14258,-2.74258 0,-0.6 0,-3.4 0,-3.4 z" transform="translate(0 1020.362)"/><path fill="#fd5b6a" fill-rule="evenodd" d="m -405.51343,1364.6138 5.25796,2.9379 c 1.07268,0.5995 1.73467,1.7149 1.73467,2.923 l 0,4.3877 -19.97896,0 0,-4.2932 c 0,-1.2665 0.69399,-2.4358 1.8185,-3.0642 l 5.17414,-2.8912 2.91891,3.6594 z"/><path fill="none" stroke="#fe2b70" d="m -407.5,1375.2823 0,-7.9202"/><path fill="none" stroke="#000" d="M-414.97525 1374.6402l0-3.1886M-402.04305 1374.6402l0-3.1886"/><ellipse cx="-406.158" cy="1370.739" rx=".601" ry=".587"/><ellipse cx="-406.158" cy="1373.088" rx=".588" ry=".575"/><path fill="#fff" fill-rule="evenodd" d="m -411.50781,344.25195 -5.17383,2.89063 c -1.12451,0.6284 -1.81836,1.79795 -1.81836,3.06445 l 0,4.29297 1.5,0 0,-2.79297 c 0,-1.2665 0.69385,-2.43605 1.81836,-3.06445 l 4.96484,-2.77344 z" transform="translate(0 1020.362)"/><path fill="none" stroke="#000" d="M-408.50073 1375.2945l0-6.7751M-408.51028 1375.2824l0-6.7613"/><path fill="#fe2b70" fill-rule="evenodd" d="m -405.51367,344.25195 -1.33008,1.58203 5.10937,2.85547 c 1.07268,0.5995 1.73438,1.71378 1.73438,2.92188 l 0,2.88867 1.47852,0 0,-4.38672 c 0,-1.2081 -0.6617,-2.32433 -1.73438,-2.92383 z" transform="translate(0 1020.362)"/><path fill="#4bbfeb" fill-rule="evenodd" stroke="#000" d="m -408.51028,1368.5211 1.14524,-1.0416 2.26887,1.0518 c 0.39478,0.1749 0.8328,-0.1411 0.77836,-0.5617 0,0 -1.06116,-3.2387 -0.98312,-3.399 -0.50438,0.7753 -0.83556,1.8796 -2.04203,2.8847"/><path fill="#4bbfeb" fill-rule="evenodd" stroke="#000" d="m -408.50073,1368.5194 -1.09565,-1.0438 -2.17063,1.054 c -0.37768,0.1753 -0.79674,-0.1414 -0.74466,-0.5628 l 0.94054,-3.4059 c 0.3384,1.0429 1.13806,2.0915 1.95362,2.9363"/><path fill="none" stroke="#000" d="m -405.51343,1361.8664 0,2.7474 5.25796,2.9379 c 1.07268,0.5995 1.73467,1.7149 1.73467,2.923 l 0,4.3877 -19.97896,0 0,-4.2932 c 0,-1.2665 0.69399,-2.4358 1.8185,-3.0642 l 5.17414,-2.8912 0,-2.7474"/><path fill="#f8e71b" d="m -410.33837,1352.4023 c -1.26621,0 -2.28556,0.9805 -2.28556,2.1983 l 0,1.9541 c 0,0.012 0.002,0.017 0.002,0.025 -4e-5,0.012 -0.002,0.016 -0.002,0.025 l 0,2.6372 c 0,2.1923 1.83563,3.958 4.11479,3.958 2.27915,0 4.11478,-1.7657 4.11478,-3.958 l 0,-2.6372 c 0,-0.012 -0.002,-0.016 -0.002,-0.025 9e-5,-0.012 0.002,-0.016 0.002,-0.025 l 0,-2.8626 c -0.18658,-1.3613 -0.87649,-2.3324 -2.29012,-2.3258 -0.0437,0.6365 -0.7475,0.9964 -1.37477,1.036 z"/><path fill="#fff" d="m -406.68359,331.00391 c -0.0437,0.6365 -0.74773,0.99751 -1.375,1.03711 l 1.62304,0 c 0.44129,-0.0279 0.90936,-0.22305 1.16993,-0.55274 -0.3562,-0.30496 -0.81753,-0.48718 -1.41797,-0.48437 z m -3.6543,1.03711 c -1.26621,0 -2.28516,0.97946 -2.28516,2.19726 l 0,1.95508 c 0,0.012 0.002,0.0154 0.002,0.0234 -4e-5,0.012 -0.002,0.0164 -0.002,0.0254 l 0,2.63672 c 0,2.1923 1.83412,3.95898 4.11328,3.95898 0.27821,0 0.55005,-0.0279 0.8125,-0.0781 C -409.58495,342.39884 -411,340.8036 -411,338.87891 l 0,-2.63672 c 0,-0.009 0.002,-0.0134 0.002,-0.0254 0,-0.008 -0.002,-0.0114 -0.002,-0.0234 l 0,-1.95508 c 0,-1.2178 1.01895,-2.19726 2.28516,-2.19726 l -1.62305,0 z" transform="translate(0 1020.362)"/><path fill="#01d1ff" fill-rule="evenodd" d="m -406.35589,331.49713 c -0.12606,0.2022 -0.33511,0.54148 -0.51911,0.66498 -0.35055,0.2355 -0.75539,0.35195 -1.15234,0.37695 l -0.0156,0 -2.29492,0 c -1.00809,0 -1.78516,0.76042 -1.78516,1.69922 l 0,1.95313 c 0,-0.044 0.002,-0.0656 0.002,0.0254 0,0.066 -0.002,0.0874 -0.002,0.0234 l 0,0.48243 1.61133,-0.89649 5.61719,1.0293 0,-0.61524 c 0,0.044 -0.002,0.0576 -0.002,-0.0254 10e-4,-0.065 0.002,-0.0835 0.002,-0.0215 l 0,-2.80469 c -0.0852,-0.6083 -0.278,-1.09024 -0.55664,-1.39844 -0.24226,-0.2681 -0.446,-0.4541 -0.90472,-0.4931 z" transform="translate(0 1020.362)"/><path fill="#01d1ff" fill-rule="evenodd" d="m -406.35547,331.49805 c -0.12606,0.2022 -0.33553,0.54056 -0.51953,0.66406 -0.35055,0.2355 -0.75539,0.35195 -1.15234,0.37695 l -0.0156,0 -2.29492,0 c -1.00809,0 -1.78516,0.76042 -1.78516,1.69922 l 0,1.95313 c 0,-0.044 0.002,-0.0656 0.002,0.0254 0,0.066 -0.002,0.0874 -0.002,0.0234 l 0,0.1543 c 0.14095,-0.0978 0.28741,-0.20103 0.4375,-0.33203 0.19696,-0.1719 0.38444,-0.35912 0.51953,-0.51562 0.13511,-0.156 0.21151,-0.32496 0.19141,-0.25196 a 0.50005006,0.50005006 0 0 1 0.5,-0.36914 l 0,-0.002 a 0.50005006,0.50005006 0 0 1 0.41211,0.24609 c 0.28885,0.4892 0.62456,0.6937 1.06445,0.8125 0.4399,0.119 0.98815,0.11775 1.56641,0.0937 0.57826,-0.024 1.18246,-0.0696 1.77539,0.0371 0.25961,0.0467 0.51839,0.14197 0.76172,0.27539 l 0,-0.14844 c 0,0.044 -0.002,0.0576 -0.002,-0.0254 10e-4,-0.065 0.002,-0.0835 0.002,-0.0215 l 0,-2.80469 c -0.0852,-0.6083 -0.278,-1.09024 -0.55664,-1.39844 -0.24226,-0.2681 -0.44558,-0.45318 -0.9043,-0.49218 z" transform="translate(0 1020.362)"/><path fill="#fff" fill-rule="evenodd" d="m -406.35547,331.49805 c -0.12606,0.2022 -0.33553,0.54056 -0.51953,0.66406 -0.35055,0.2355 -0.75539,0.35195 -1.15234,0.37695 l 1.10742,0 0.0156,0 c 0.39695,-0.025 0.8018,-0.14145 1.15235,-0.37695 0.0732,-0.0491 0.15018,-0.14517 0.22461,-0.24023 -0.21297,-0.22464 -0.41655,-0.38884 -0.82813,-0.42383 z m -3.98242,1.04101 c -1.00809,0 -1.78516,0.76042 -1.78516,1.69922 l 0,1.95313 c 0,-0.044 0.002,-0.0656 0.002,0.0254 0,0.066 -0.002,0.0874 -0.002,0.0234 l 0,0.1543 c 0.14095,-0.0978 0.28741,-0.20103 0.4375,-0.33203 0.19696,-0.1719 0.38444,-0.35913 0.51953,-0.51562 0.11727,-0.1354 0.16191,-0.23049 0.16602,-0.21876 l 0,-1.08984 c 0,-0.9388 0.77707,-1.69922 1.78516,-1.69922 l -1.12305,0 z m 0.96484,2.38477 a 0.50005006,0.50005006 0 0 0 -0.47851,0.37109 c 0.007,-0.0238 -0.0499,0.0632 -0.0625,0.082 0.25569,0.33567 0.54811,0.50611 0.91601,0.60547 0.4399,0.119 0.98815,0.11775 1.56641,0.0937 0.0595,-0.002 0.12165,-0.003 0.18164,-0.006 -0.22176,-0.0145 -0.43678,-0.035 -0.625,-0.0859 -0.43989,-0.1188 -0.7756,-0.32331 -1.06445,-0.8125 a 0.50005006,0.50005006 0 0 0 -0.41211,-0.2461 0.50005006,0.50005006 0 0 0 -0.0215,-0.002 z m 3.94727,1.12305 c -0.25271,9.5e-4 -0.50279,0.0162 -0.75,0.0273 0.17353,0.01 0.34699,0.008 0.51953,0.0391 0.25961,0.0467 0.51839,0.14197 0.76172,0.27539 l 0,-0.14844 c 0,0.044 -0.002,0.0576 -0.002,-0.0254 10e-4,-0.065 0.002,-0.0835 0.002,-0.0215 l 0,-0.10547 c -0.17737,-0.0156 -0.35421,-0.0417 -0.53125,-0.041 z" transform="translate(0 1020.362)"/><path fill="#00a5ff" fill-rule="evenodd" d="m -406.35547,331.49805 c -0.0744,0.11936 -0.17891,0.27396 -0.28906,0.41601 0.028,0.0292 0.0593,0.0465 0.0879,0.0781 0.27864,0.3082 0.47144,0.79013 0.55664,1.39843 l 0,2.69727 c 0.11472,0.0105 0.2296,0.005 0.34375,0.0254 0.25961,0.0467 0.51839,0.14197 0.76172,0.27539 l 0,-0.14844 c 0,0.044 -0.002,0.0576 -0.002,-0.0254 0.001,-0.065 0.002,-0.0835 0.002,-0.0215 l 0,-2.80469 c -0.0852,-0.6083 -0.278,-1.09024 -0.55664,-1.39844 -0.24226,-0.2681 -0.44558,-0.45318 -0.9043,-0.49218 z m -1.29883,4.54883 c -0.23297,8.8e-4 -0.46292,0.0149 -0.6914,0.0254 0.28835,0.0172 0.59405,0.0172 0.91406,0.004 0.0358,-10e-4 0.0734,-0.002 0.10937,-0.004 -0.11091,-0.005 -0.22138,-0.0258 -0.33203,-0.0254 z" transform="translate(0 1020.362)"/><path fill="none" stroke="#000" d="m -410.33837,1352.4023 c -1.26621,0 -2.28556,0.9805 -2.28556,2.1983 l 0,1.9541 c 0,0.012 0.002,0.017 0.002,0.025 -4e-5,0.012 -0.002,0.016 -0.002,0.025 l 0,2.6372 c 0,2.1923 1.83563,3.958 4.11479,3.958 2.27915,0 4.11478,-1.7657 4.11478,-3.958 l 0,-2.6372 c 0,-0.012 -0.002,-0.016 -0.002,-0.025 9e-5,-0.012 0.002,-0.016 0.002,-0.025 l 0,-2.8626 c -0.18658,-1.3613 -0.87649,-2.3324 -2.29012,-2.3258 -0.0437,0.6365 -0.7475,0.9964 -1.37477,1.036 z"/><path fill="none" stroke="#000" stroke-linecap="round" stroke-linejoin="round" d="m -412.50326,1357.4898 c 0.49667,0 1.89242,-1.2705 2.0107,-1.7022 1.40838,2.3853 4.81636,0.025 5.96984,1.9777"/></g></svg>